<mxfile host="app.diagrams.net" modified="2022-01-17T21:15:11.590Z" agent="5.0 (X11)" etag="zjttexaq4841Sa9Qh-RZ" version="15.8.7" type="github" pages="2">
  <diagram id="dEnHPHHX68f_mmb1mJtB" name="Context  Diagram">
    <mxGraphModel dx="1422" dy="793" grid="1" gridSize="10" guides="1" tooltips="1" connect="1" arrows="1" fold="1" page="1" pageScale="1" pageWidth="850" pageHeight="1100" math="0" shadow="0">
      <root>
        <mxCell id="0" />
        <mxCell id="1" parent="0" />
        <mxCell id="01sqI_WsHop8ThjdI0US-7" style="edgeStyle=orthogonalEdgeStyle;rounded=0;orthogonalLoop=1;jettySize=auto;html=1;entryX=-0.011;entryY=0.182;entryDx=0;entryDy=0;entryPerimeter=0;" edge="1" parent="1" source="01sqI_WsHop8ThjdI0US-1" target="01sqI_WsHop8ThjdI0US-2">
          <mxGeometry relative="1" as="geometry">
            <Array as="points">
              <mxPoint x="190" y="151" />
              <mxPoint x="190" y="151" />
            </Array>
          </mxGeometry>
        </mxCell>
        <mxCell id="01sqI_WsHop8ThjdI0US-1" value="Jeune médécin" style="shape=umlActor;verticalLabelPosition=bottom;verticalAlign=top;html=1;outlineConnect=0;" vertex="1" parent="1">
          <mxGeometry x="130" y="120" width="30" height="60" as="geometry" />
        </mxCell>
        <mxCell id="01sqI_WsHop8ThjdI0US-2" value="&lt;font style=&quot;font-size: 21px&quot;&gt;&lt;b&gt;&lt;font style=&quot;font-size: 21px&quot; color=&quot;#FFFFFF&quot;&gt;&amp;lt;&amp;lt;System&amp;gt;&amp;gt;&lt;br&gt;STI&lt;/font&gt;&lt;/b&gt;&lt;/font&gt;" style="rounded=0;whiteSpace=wrap;html=1;fillColor=#333333;" vertex="1" parent="1">
          <mxGeometry x="300" y="80" width="360" height="390" as="geometry" />
        </mxCell>
        <mxCell id="01sqI_WsHop8ThjdI0US-8" style="edgeStyle=orthogonalEdgeStyle;rounded=0;orthogonalLoop=1;jettySize=auto;html=1;entryX=-0.006;entryY=0.718;entryDx=0;entryDy=0;entryPerimeter=0;" edge="1" parent="1" source="01sqI_WsHop8ThjdI0US-3" target="01sqI_WsHop8ThjdI0US-2">
          <mxGeometry relative="1" as="geometry" />
        </mxCell>
        <mxCell id="01sqI_WsHop8ThjdI0US-3" value="Étudiant médécin" style="shape=umlActor;verticalLabelPosition=bottom;verticalAlign=top;html=1;outlineConnect=0;" vertex="1" parent="1">
          <mxGeometry x="130" y="330" width="30" height="60" as="geometry" />
        </mxCell>
      </root>
    </mxGraphModel>
  </diagram>
  <diagram id="Vyi6rh6e5xZRLpnm3FMA" name="Use case Diagram">
    <mxGraphModel dx="1422" dy="793" grid="1" gridSize="10" guides="1" tooltips="1" connect="1" arrows="1" fold="1" page="1" pageScale="1" pageWidth="850" pageHeight="1100" math="0" shadow="0">
      <root>
        <mxCell id="Shx9F2xdIUPQt7zczx8I-0" />
        <mxCell id="Shx9F2xdIUPQt7zczx8I-1" parent="Shx9F2xdIUPQt7zczx8I-0" />
        <mxCell id="XPATIeBGFoGHhk_QoPtu-2" style="edgeStyle=orthogonalEdgeStyle;rounded=0;orthogonalLoop=1;jettySize=auto;html=1;fontSize=13;fontColor=#333333;" edge="1" parent="Shx9F2xdIUPQt7zczx8I-1" source="B6fAdgQhvIyTP3v76YVn-1">
          <mxGeometry relative="1" as="geometry">
            <mxPoint x="110" y="350" as="targetPoint" />
            <Array as="points">
              <mxPoint x="55" y="350" />
            </Array>
          </mxGeometry>
        </mxCell>
        <mxCell id="B6fAdgQhvIyTP3v76YVn-1" value="Jeune médécin" style="shape=umlActor;verticalLabelPosition=bottom;verticalAlign=top;html=1;outlineConnect=0;" vertex="1" parent="Shx9F2xdIUPQt7zczx8I-1">
          <mxGeometry x="40" y="170" width="30" height="60" as="geometry" />
        </mxCell>
        <mxCell id="B6fAdgQhvIyTP3v76YVn-2" value="" style="rounded=0;whiteSpace=wrap;html=1;fillColor=#FFFFFF;" vertex="1" parent="Shx9F2xdIUPQt7zczx8I-1">
          <mxGeometry x="210" y="110" width="450" height="650" as="geometry" />
        </mxCell>
        <mxCell id="XPATIeBGFoGHhk_QoPtu-0" style="edgeStyle=orthogonalEdgeStyle;rounded=0;orthogonalLoop=1;jettySize=auto;html=1;fontSize=13;fontColor=#333333;" edge="1" parent="Shx9F2xdIUPQt7zczx8I-1" source="B6fAdgQhvIyTP3v76YVn-4">
          <mxGeometry relative="1" as="geometry">
            <mxPoint x="110" y="380" as="targetPoint" />
            <Array as="points">
              <mxPoint x="55" y="380" />
            </Array>
          </mxGeometry>
        </mxCell>
        <mxCell id="B6fAdgQhvIyTP3v76YVn-4" value="Étudiant médécin" style="shape=umlActor;verticalLabelPosition=bottom;verticalAlign=top;html=1;outlineConnect=0;" vertex="1" parent="Shx9F2xdIUPQt7zczx8I-1">
          <mxGeometry x="40" y="510" width="30" height="60" as="geometry" />
        </mxCell>
        <mxCell id="B6fAdgQhvIyTP3v76YVn-7" value="&lt;div align=&quot;center&quot;&gt;&lt;font style=&quot;font-size: 13px&quot;&gt;&amp;lt;&amp;lt;system&amp;gt;&amp;gt;&lt;/font&gt;&lt;br&gt;&lt;font style=&quot;font-size: 13px&quot;&gt;STI&lt;/font&gt;&lt;/div&gt;" style="text;html=1;strokeColor=none;fillColor=none;align=center;verticalAlign=middle;whiteSpace=wrap;rounded=0;fontSize=21;fontColor=#333333;strokeWidth=0;" vertex="1" parent="Shx9F2xdIUPQt7zczx8I-1">
          <mxGeometry x="410" y="130" width="60" height="20" as="geometry" />
        </mxCell>
        <mxCell id="B6fAdgQhvIyTP3v76YVn-8" value="Créer un compte" style="ellipse;whiteSpace=wrap;html=1;fontSize=13;fontColor=#333333;strokeWidth=1;fillColor=#FFFFFF;" vertex="1" parent="Shx9F2xdIUPQt7zczx8I-1">
          <mxGeometry x="260" y="175" width="210" height="50" as="geometry" />
        </mxCell>
        <mxCell id="XPATIeBGFoGHhk_QoPtu-23" style="edgeStyle=orthogonalEdgeStyle;rounded=0;orthogonalLoop=1;jettySize=auto;html=1;entryX=0;entryY=0.5;entryDx=0;entryDy=0;fontSize=11;fontColor=#333333;" edge="1" parent="Shx9F2xdIUPQt7zczx8I-1" source="XPATIeBGFoGHhk_QoPtu-1" target="B6fAdgQhvIyTP3v76YVn-8">
          <mxGeometry relative="1" as="geometry">
            <Array as="points">
              <mxPoint x="135" y="200" />
            </Array>
          </mxGeometry>
        </mxCell>
        <mxCell id="XPATIeBGFoGHhk_QoPtu-24" style="edgeStyle=orthogonalEdgeStyle;rounded=0;orthogonalLoop=1;jettySize=auto;html=1;entryX=0;entryY=0.5;entryDx=0;entryDy=0;fontSize=11;fontColor=#333333;" edge="1" parent="Shx9F2xdIUPQt7zczx8I-1" source="XPATIeBGFoGHhk_QoPtu-1" target="XPATIeBGFoGHhk_QoPtu-3">
          <mxGeometry relative="1" as="geometry">
            <Array as="points">
              <mxPoint x="170" y="350" />
              <mxPoint x="170" y="275" />
            </Array>
          </mxGeometry>
        </mxCell>
        <mxCell id="XPATIeBGFoGHhk_QoPtu-25" style="edgeStyle=orthogonalEdgeStyle;rounded=0;orthogonalLoop=1;jettySize=auto;html=1;fontSize=11;fontColor=#333333;" edge="1" parent="Shx9F2xdIUPQt7zczx8I-1" source="XPATIeBGFoGHhk_QoPtu-1" target="XPATIeBGFoGHhk_QoPtu-4">
          <mxGeometry relative="1" as="geometry">
            <Array as="points">
              <mxPoint x="180" y="365" />
              <mxPoint x="180" y="365" />
            </Array>
          </mxGeometry>
        </mxCell>
        <mxCell id="XPATIeBGFoGHhk_QoPtu-26" style="edgeStyle=orthogonalEdgeStyle;rounded=0;orthogonalLoop=1;jettySize=auto;html=1;fontSize=11;fontColor=#333333;" edge="1" parent="Shx9F2xdIUPQt7zczx8I-1" source="XPATIeBGFoGHhk_QoPtu-1" target="XPATIeBGFoGHhk_QoPtu-10">
          <mxGeometry relative="1" as="geometry">
            <Array as="points">
              <mxPoint x="375" y="400" />
            </Array>
          </mxGeometry>
        </mxCell>
        <mxCell id="XPATIeBGFoGHhk_QoPtu-27" style="edgeStyle=orthogonalEdgeStyle;rounded=0;orthogonalLoop=1;jettySize=auto;html=1;fontSize=11;fontColor=#333333;entryX=0.5;entryY=0;entryDx=0;entryDy=0;" edge="1" parent="Shx9F2xdIUPQt7zczx8I-1" source="XPATIeBGFoGHhk_QoPtu-1" target="XPATIeBGFoGHhk_QoPtu-12">
          <mxGeometry relative="1" as="geometry">
            <Array as="points">
              <mxPoint x="150" y="470" />
              <mxPoint x="375" y="470" />
            </Array>
          </mxGeometry>
        </mxCell>
        <mxCell id="XPATIeBGFoGHhk_QoPtu-28" style="edgeStyle=orthogonalEdgeStyle;rounded=0;orthogonalLoop=1;jettySize=auto;html=1;entryX=0;entryY=0.5;entryDx=0;entryDy=0;fontSize=11;fontColor=#333333;" edge="1" parent="Shx9F2xdIUPQt7zczx8I-1" source="XPATIeBGFoGHhk_QoPtu-1" target="XPATIeBGFoGHhk_QoPtu-13">
          <mxGeometry relative="1" as="geometry">
            <Array as="points">
              <mxPoint x="140" y="580" />
              <mxPoint x="230" y="580" />
              <mxPoint x="230" y="585" />
            </Array>
          </mxGeometry>
        </mxCell>
        <mxCell id="XPATIeBGFoGHhk_QoPtu-29" style="edgeStyle=orthogonalEdgeStyle;rounded=0;orthogonalLoop=1;jettySize=auto;html=1;fontSize=11;fontColor=#333333;" edge="1" parent="Shx9F2xdIUPQt7zczx8I-1" source="XPATIeBGFoGHhk_QoPtu-1" target="XPATIeBGFoGHhk_QoPtu-20">
          <mxGeometry relative="1" as="geometry">
            <Array as="points">
              <mxPoint x="135" y="645" />
            </Array>
          </mxGeometry>
        </mxCell>
        <mxCell id="XPATIeBGFoGHhk_QoPtu-30" style="edgeStyle=orthogonalEdgeStyle;rounded=0;orthogonalLoop=1;jettySize=auto;html=1;fontSize=11;fontColor=#333333;" edge="1" parent="Shx9F2xdIUPQt7zczx8I-1" source="XPATIeBGFoGHhk_QoPtu-1" target="XPATIeBGFoGHhk_QoPtu-5">
          <mxGeometry relative="1" as="geometry">
            <Array as="points">
              <mxPoint x="120" y="715" />
            </Array>
          </mxGeometry>
        </mxCell>
        <mxCell id="XPATIeBGFoGHhk_QoPtu-1" value="&lt;b&gt;apprenant&lt;/b&gt;" style="shape=umlActor;verticalLabelPosition=bottom;verticalAlign=top;html=1;outlineConnect=0;fontSize=13;fontColor=#333333;strokeWidth=1;fillColor=#FFFFFF;" vertex="1" parent="Shx9F2xdIUPQt7zczx8I-1">
          <mxGeometry x="120" y="340" width="30" height="60" as="geometry" />
        </mxCell>
        <mxCell id="XPATIeBGFoGHhk_QoPtu-3" value="Se connecter" style="ellipse;whiteSpace=wrap;html=1;fontSize=13;fontColor=#333333;strokeWidth=1;fillColor=#FFFFFF;" vertex="1" parent="Shx9F2xdIUPQt7zczx8I-1">
          <mxGeometry x="270" y="250" width="210" height="50" as="geometry" />
        </mxCell>
        <mxCell id="XPATIeBGFoGHhk_QoPtu-6" style="edgeStyle=orthogonalEdgeStyle;rounded=0;orthogonalLoop=1;jettySize=auto;html=1;fontSize=13;fontColor=#333333;" edge="1" parent="Shx9F2xdIUPQt7zczx8I-1" source="XPATIeBGFoGHhk_QoPtu-4" target="XPATIeBGFoGHhk_QoPtu-3">
          <mxGeometry relative="1" as="geometry" />
        </mxCell>
        <mxCell id="XPATIeBGFoGHhk_QoPtu-9" value="&amp;lt;&amp;lt;use&amp;gt;&amp;gt;" style="edgeLabel;html=1;align=center;verticalAlign=middle;resizable=0;points=[];fontSize=11;fontColor=#333333;" vertex="1" connectable="0" parent="XPATIeBGFoGHhk_QoPtu-6">
          <mxGeometry x="-0.2235" y="-2" relative="1" as="geometry">
            <mxPoint as="offset" />
          </mxGeometry>
        </mxCell>
        <mxCell id="XPATIeBGFoGHhk_QoPtu-4" value="Lancer un exercice de diagnostique" style="ellipse;whiteSpace=wrap;html=1;fontSize=13;fontColor=#333333;strokeWidth=1;fillColor=#FFFFFF;" vertex="1" parent="Shx9F2xdIUPQt7zczx8I-1">
          <mxGeometry x="300" y="340" width="240" height="50" as="geometry" />
        </mxCell>
        <mxCell id="XPATIeBGFoGHhk_QoPtu-7" style="edgeStyle=orthogonalEdgeStyle;rounded=0;orthogonalLoop=1;jettySize=auto;html=1;fontSize=13;fontColor=#333333;" edge="1" parent="Shx9F2xdIUPQt7zczx8I-1" source="XPATIeBGFoGHhk_QoPtu-5" target="XPATIeBGFoGHhk_QoPtu-3">
          <mxGeometry relative="1" as="geometry">
            <Array as="points">
              <mxPoint x="630" y="715" />
              <mxPoint x="630" y="275" />
            </Array>
          </mxGeometry>
        </mxCell>
        <mxCell id="XPATIeBGFoGHhk_QoPtu-8" value="&lt;font style=&quot;font-size: 11px&quot;&gt;&amp;lt;&amp;lt;use&amp;gt;&amp;gt;&lt;/font&gt;" style="edgeLabel;html=1;align=center;verticalAlign=middle;resizable=0;points=[];fontSize=13;fontColor=#333333;" vertex="1" connectable="0" parent="XPATIeBGFoGHhk_QoPtu-7">
          <mxGeometry x="0.0554" y="-1" relative="1" as="geometry">
            <mxPoint x="-1" as="offset" />
          </mxGeometry>
        </mxCell>
        <mxCell id="XPATIeBGFoGHhk_QoPtu-5" value="Voir son évolution/historique" style="ellipse;whiteSpace=wrap;html=1;fontSize=13;fontColor=#333333;strokeWidth=1;fillColor=#FFFFFF;" vertex="1" parent="Shx9F2xdIUPQt7zczx8I-1">
          <mxGeometry x="300" y="690" width="240" height="50" as="geometry" />
        </mxCell>
        <mxCell id="XPATIeBGFoGHhk_QoPtu-14" style="edgeStyle=orthogonalEdgeStyle;rounded=0;orthogonalLoop=1;jettySize=auto;html=1;entryX=1;entryY=1;entryDx=0;entryDy=0;fontSize=11;fontColor=#333333;" edge="1" parent="Shx9F2xdIUPQt7zczx8I-1" source="XPATIeBGFoGHhk_QoPtu-10" target="XPATIeBGFoGHhk_QoPtu-4">
          <mxGeometry relative="1" as="geometry">
            <Array as="points">
              <mxPoint x="505" y="435" />
            </Array>
          </mxGeometry>
        </mxCell>
        <mxCell id="XPATIeBGFoGHhk_QoPtu-15" value="&amp;lt;&amp;lt;use&amp;gt;&amp;gt;" style="edgeLabel;html=1;align=center;verticalAlign=middle;resizable=0;points=[];fontSize=11;fontColor=#333333;" vertex="1" connectable="0" parent="XPATIeBGFoGHhk_QoPtu-14">
          <mxGeometry x="-0.1997" y="-1" relative="1" as="geometry">
            <mxPoint as="offset" />
          </mxGeometry>
        </mxCell>
        <mxCell id="XPATIeBGFoGHhk_QoPtu-10" value="Poser une question au patient virtuel" style="ellipse;whiteSpace=wrap;html=1;fontSize=13;fontColor=#333333;strokeWidth=1;fillColor=#FFFFFF;" vertex="1" parent="Shx9F2xdIUPQt7zczx8I-1">
          <mxGeometry x="260" y="410" width="230" height="50" as="geometry" />
        </mxCell>
        <mxCell id="XPATIeBGFoGHhk_QoPtu-16" style="edgeStyle=orthogonalEdgeStyle;rounded=0;orthogonalLoop=1;jettySize=auto;html=1;fontSize=11;fontColor=#333333;" edge="1" parent="Shx9F2xdIUPQt7zczx8I-1" source="XPATIeBGFoGHhk_QoPtu-12" target="XPATIeBGFoGHhk_QoPtu-4">
          <mxGeometry relative="1" as="geometry">
            <Array as="points">
              <mxPoint x="530" y="515" />
            </Array>
          </mxGeometry>
        </mxCell>
        <mxCell id="XPATIeBGFoGHhk_QoPtu-17" value="&amp;lt;&amp;lt;use&amp;gt;&amp;gt;" style="edgeLabel;html=1;align=center;verticalAlign=middle;resizable=0;points=[];fontSize=11;fontColor=#333333;" vertex="1" connectable="0" parent="XPATIeBGFoGHhk_QoPtu-16">
          <mxGeometry x="-0.1778" y="3" relative="1" as="geometry">
            <mxPoint as="offset" />
          </mxGeometry>
        </mxCell>
        <mxCell id="XPATIeBGFoGHhk_QoPtu-12" value="&lt;div&gt;Emmettre une hypothèse&amp;nbsp; &lt;br&gt;&lt;/div&gt;&lt;div&gt;sur la maladie du patient virtuel&lt;br&gt;&lt;/div&gt;" style="ellipse;whiteSpace=wrap;html=1;fontSize=13;fontColor=#333333;strokeWidth=1;fillColor=#FFFFFF;" vertex="1" parent="Shx9F2xdIUPQt7zczx8I-1">
          <mxGeometry x="260" y="490" width="230" height="50" as="geometry" />
        </mxCell>
        <mxCell id="XPATIeBGFoGHhk_QoPtu-18" style="edgeStyle=orthogonalEdgeStyle;rounded=0;orthogonalLoop=1;jettySize=auto;html=1;fontSize=11;fontColor=#333333;" edge="1" parent="Shx9F2xdIUPQt7zczx8I-1" source="XPATIeBGFoGHhk_QoPtu-13" target="XPATIeBGFoGHhk_QoPtu-4">
          <mxGeometry relative="1" as="geometry">
            <Array as="points">
              <mxPoint x="570" y="585" />
              <mxPoint x="570" y="365" />
            </Array>
          </mxGeometry>
        </mxCell>
        <mxCell id="XPATIeBGFoGHhk_QoPtu-19" value="&amp;lt;&amp;lt;use&amp;gt;&amp;gt;" style="edgeLabel;html=1;align=center;verticalAlign=middle;resizable=0;points=[];fontSize=11;fontColor=#333333;" vertex="1" connectable="0" parent="XPATIeBGFoGHhk_QoPtu-18">
          <mxGeometry x="-0.5312" y="-1" relative="1" as="geometry">
            <mxPoint as="offset" />
          </mxGeometry>
        </mxCell>
        <mxCell id="XPATIeBGFoGHhk_QoPtu-13" value="Soumettre un diagnotique au tuteur" style="ellipse;whiteSpace=wrap;html=1;fontSize=13;fontColor=#333333;strokeWidth=1;fillColor=#FFFFFF;" vertex="1" parent="Shx9F2xdIUPQt7zczx8I-1">
          <mxGeometry x="310" y="560" width="230" height="50" as="geometry" />
        </mxCell>
        <mxCell id="XPATIeBGFoGHhk_QoPtu-21" style="edgeStyle=orthogonalEdgeStyle;rounded=0;orthogonalLoop=1;jettySize=auto;html=1;fontSize=11;fontColor=#333333;entryX=0.929;entryY=0.2;entryDx=0;entryDy=0;entryPerimeter=0;" edge="1" parent="Shx9F2xdIUPQt7zczx8I-1" source="XPATIeBGFoGHhk_QoPtu-20" target="XPATIeBGFoGHhk_QoPtu-4">
          <mxGeometry relative="1" as="geometry">
            <Array as="points">
              <mxPoint x="600" y="645" />
              <mxPoint x="600" y="350" />
            </Array>
          </mxGeometry>
        </mxCell>
        <mxCell id="XPATIeBGFoGHhk_QoPtu-22" value="&amp;lt;&amp;lt;use&amp;gt;&amp;gt;" style="edgeLabel;html=1;align=center;verticalAlign=middle;resizable=0;points=[];fontSize=11;fontColor=#333333;" vertex="1" connectable="0" parent="XPATIeBGFoGHhk_QoPtu-21">
          <mxGeometry x="-0.6907" y="1" relative="1" as="geometry">
            <mxPoint as="offset" />
          </mxGeometry>
        </mxCell>
        <mxCell id="XPATIeBGFoGHhk_QoPtu-20" value="Consulter le feedback du tuteur" style="ellipse;whiteSpace=wrap;html=1;fontSize=13;fontColor=#333333;strokeWidth=1;fillColor=#FFFFFF;" vertex="1" parent="Shx9F2xdIUPQt7zczx8I-1">
          <mxGeometry x="270" y="620" width="230" height="50" as="geometry" />
        </mxCell>
      </root>
    </mxGraphModel>
  </diagram>
</mxfile>
